{
	"asset":{
		"generator":"Khronos glTF Blender I/O v3.5.30",
		"version":"2.0"
	},
	"scene":0,
	"scenes":[
		{
			"name":"Scene",
			"nodes":[
				0,
				1
			]
		}
	],
	"nodes":[
		{
			"mesh":0,
			"name":"_9B1CF6FB_7F33_4B2F_9AD1_F07B1A795095",
			"rotation":[
				0.7071068286895752,
				0,
				0,
				0.7071068286895752
			]
		},
		{
			"mesh":1,
			"name":"watermark",
			"rotation":[
				0.7071068286895752,
				0,
				0,
				0.7071068286895752
			]
		}
	],
	"materials":[
		{
			"doubleSided":true,
			"name":"g0",
			"pbrMetallicRoughness":{
				"baseColorTexture":{
					"index":0
				},
				"metallicFactor":0,
				"roughnessFactor":0.5
			}
		},
		{
			"doubleSided":true,
			"name":"Material_0",
			"pbrMetallicRoughness":{
				"metallicFactor":0,
				"roughnessFactor":0.5
			}
		}
	],
	"meshes":[
		{
			"name":"_9B1CF6FB_7F33_4B2F_9AD1_F07B1A795095",
			"primitives":[
				{
					"attributes":{
						"POSITION":0,
						"TEXCOORD_0":1,
						"NORMAL":2
					},
					"indices":3,
					"material":0
				}
			]
		},
		{
			"name":"watermark",
			"primitives":[
				{
					"attributes":{
						"POSITION":4,
						"TEXCOORD_0":5,
						"NORMAL":6
					},
					"indices":7,
					"material":1
				}
			]
		}
	],
	"textures":[
		{
			"sampler":0,
			"source":0
		}
	],
	"images":[
		{
			"bufferView":4,
			"mimeType":"image/png",
			"name":"texgen_2"
		}
	],
	"accessors":[
		{
			"bufferView":0,
			"componentType":5126,
			"count":4691,
			"max":[
				0.7262910008430481,
				0.7129920125007629,
				0.5078369975090027
			],
			"min":[
				-0.7260180115699768,
				-0.6992909908294678,
				-0.6753479838371277
			],
			"type":"VEC3"
		},
		{
			"bufferView":1,
			"componentType":5126,
			"count":4691,
			"type":"VEC2"
		},
		{
			"bufferView":2,
			"componentType":5126,
			"count":4691,
			"type":"VEC3"
		},
		{
			"bufferView":3,
			"componentType":5123,
			"count":14997,
			"type":"SCALAR"
		},
		{
			"bufferView":5,
			"componentType":5126,
			"count":4,
			"max":[
				0,
				0,
				0
			],
			"min":[
				0,
				0,
				0
			],
			"type":"VEC3"
		},
		{
			"bufferView":6,
			"componentType":5126,
			"count":4,
			"type":"VEC2"
		},
		{
			"bufferView":7,
			"componentType":5126,
			"count":4,
			"type":"VEC3"
		},
		{
			"bufferView":8,
			"componentType":5123,
			"count":6,
			"type":"SCALAR"
		}
	],
	"bufferViews":[
		{
			"buffer":0,
			"byteLength":56292,
			"byteOffset":0,
			"target":34962
		},
		{
			"buffer":0,
			"byteLength":37528,
			"byteOffset":56292,
			"target":34962
		},
		{
			"buffer":0,
			"byteLength":56292,
			"byteOffset":93820,
			"target":34962
		},
		{
			"buffer":0,
			"byteLength":29994,
			"byteOffset":150112,
			"target":34963
		},
		{
			"buffer":0,
			"byteLength":176239,
			"byteOffset":180108
		},
		{
			"buffer":0,
			"byteLength":48,
			"byteOffset":356348,
			"target":34962
		},
		{
			"buffer":0,
			"byteLength":32,
			"byteOffset":356396,
			"target":34962
		},
		{
			"buffer":0,
			"byteLength":48,
			"byteOffset":356428,
			"target":34962
		},
		{
			"buffer":0,
			"byteLength":12,
			"byteOffset":356476,
			"target":34963
		}
	],
	"samplers":[
		{
			"magFilter":9729,
			"minFilter":9987
		}
	],
	"buffers":[
		{
			"byteLength":356488,
			"uri":"data:application/octet-stream;base64,"
		}
	]
}
