{
	"asset":{
		"generator":"Khronos glTF Blender I/O v3.5.30",
		"version":"2.0"
	},
	"scene":0,
	"scenes":[
		{
			"name":"Scene",
			"nodes":[
				0,
				1
			]
		}
	],
	"nodes":[
		{
			"mesh":0,
			"name":"_6D18154B_1934_4A16_85DB_F9DC3EBC7159",
			"rotation":[
				0.7071068286895752,
				0,
				0,
				0.7071068286895752
			]
		},
		{
			"mesh":1,
			"name":"watermark",
			"rotation":[
				0.7071068286895752,
				0,
				0,
				0.7071068286895752
			]
		}
	],
	"materials":[
		{
			"doubleSided":true,
			"name":"g0",
			"pbrMetallicRoughness":{
				"baseColorTexture":{
					"index":0
				},
				"metallicFactor":0,
				"roughnessFactor":0.5
			}
		},
		{
			"doubleSided":true,
			"name":"Material_0",
			"pbrMetallicRoughness":{
				"metallicFactor":0,
				"roughnessFactor":0.5
			}
		}
	],
	"meshes":[
		{
			"name":"_6D18154B_1934_4A16_85DB_F9DC3EBC7159",
			"primitives":[
				{
					"attributes":{
						"POSITION":0,
						"TEXCOORD_0":1,
						"NORMAL":2
					},
					"indices":3,
					"material":0
				}
			]
		},
		{
			"name":"watermark",
			"primitives":[
				{
					"attributes":{
						"POSITION":4,
						"TEXCOORD_0":5,
						"NORMAL":6
					},
					"indices":7,
					"material":1
				}
			]
		}
	],
	"textures":[
		{
			"sampler":0,
			"source":0
		}
	],
	"images":[
		{
			"bufferView":4,
			"mimeType":"image/png",
			"name":"texgen_2"
		}
	],
	"accessors":[
		{
			"bufferView":0,
			"componentType":5126,
			"count":4587,
			"max":[
				0.7100809812545776,
				0.7366570234298706,
				0.4992679953575134
			],
			"min":[
				-0.7139639854431152,
				-0.7394160032272339,
				-0.6728870272636414
			],
			"type":"VEC3"
		},
		{
			"bufferView":1,
			"componentType":5126,
			"count":4587,
			"type":"VEC2"
		},
		{
			"bufferView":2,
			"componentType":5126,
			"count":4587,
			"type":"VEC3"
		},
		{
			"bufferView":3,
			"componentType":5123,
			"count":14994,
			"type":"SCALAR"
		},
		{
			"bufferView":5,
			"componentType":5126,
			"count":4,
			"max":[
				0,
				0,
				0
			],
			"min":[
				0,
				0,
				0
			],
			"type":"VEC3"
		},
		{
			"bufferView":6,
			"componentType":5126,
			"count":4,
			"type":"VEC2"
		},
		{
			"bufferView":7,
			"componentType":5126,
			"count":4,
			"type":"VEC3"
		},
		{
			"bufferView":8,
			"componentType":5123,
			"count":6,
			"type":"SCALAR"
		}
	],
	"bufferViews":[
		{
			"buffer":0,
			"byteLength":55044,
			"byteOffset":0,
			"target":34962
		},
		{
			"buffer":0,
			"byteLength":36696,
			"byteOffset":55044,
			"target":34962
		},
		{
			"buffer":0,
			"byteLength":55044,
			"byteOffset":91740,
			"target":34962
		},
		{
			"buffer":0,
			"byteLength":29988,
			"byteOffset":146784,
			"target":34963
		},
		{
			"buffer":0,
			"byteLength":173628,
			"byteOffset":176772
		},
		{
			"buffer":0,
			"byteLength":48,
			"byteOffset":350400,
			"target":34962
		},
		{
			"buffer":0,
			"byteLength":32,
			"byteOffset":350448,
			"target":34962
		},
		{
			"buffer":0,
			"byteLength":48,
			"byteOffset":350480,
			"target":34962
		},
		{
			"buffer":0,
			"byteLength":12,
			"byteOffset":350528,
			"target":34963
		}
	],
	"samplers":[
		{
			"magFilter":9729,
			"minFilter":9987
		}
	],
	"buffers":[
		{
			"byteLength":350540,
			"uri":"data:application/octet-stream;base64,"
		}
	]
}
