{
	"asset":{
		"generator":"Khronos glTF Blender I/O v3.5.30",
		"version":"2.0"
	},
	"scene":0,
	"scenes":[
		{
			"name":"Scene",
			"nodes":[
				0,
				1
			]
		}
	],
	"nodes":[
		{
			"mesh":0,
			"name":"EA6871A9_158B_4BB2_BF16_46AB62F3B222",
			"rotation":[
				0.7071068286895752,
				0,
				0,
				0.7071068286895752
			]
		},
		{
			"mesh":1,
			"name":"watermark",
			"rotation":[
				0.7071068286895752,
				0,
				0,
				0.7071068286895752
			]
		}
	],
	"materials":[
		{
			"doubleSided":true,
			"name":"g0",
			"pbrMetallicRoughness":{
				"baseColorTexture":{
					"index":0
				},
				"metallicFactor":0,
				"roughnessFactor":0.5
			}
		},
		{
			"doubleSided":true,
			"name":"Material_0",
			"pbrMetallicRoughness":{
				"metallicFactor":0,
				"roughnessFactor":0.5
			}
		}
	],
	"meshes":[
		{
			"name":"EA6871A9_158B_4BB2_BF16_46AB62F3B222",
			"primitives":[
				{
					"attributes":{
						"POSITION":0,
						"TEXCOORD_0":1,
						"NORMAL":2
					},
					"indices":3,
					"material":0
				}
			]
		},
		{
			"name":"watermark",
			"primitives":[
				{
					"attributes":{
						"POSITION":4,
						"TEXCOORD_0":5,
						"NORMAL":6
					},
					"indices":7,
					"material":1
				}
			]
		}
	],
	"textures":[
		{
			"sampler":0,
			"source":0
		}
	],
	"images":[
		{
			"bufferView":4,
			"mimeType":"image/png",
			"name":"texgen_2"
		}
	],
	"accessors":[
		{
			"bufferView":0,
			"componentType":5126,
			"count":9220,
			"max":[
				0.7035930156707764,
				0.7410600185394287,
				0.4809440076351166
			],
			"min":[
				-0.70346599817276,
				-0.7412179708480835,
				-0.6817880272865295
			],
			"type":"VEC3"
		},
		{
			"bufferView":1,
			"componentType":5126,
			"count":9220,
			"type":"VEC2"
		},
		{
			"bufferView":2,
			"componentType":5126,
			"count":9220,
			"type":"VEC3"
		},
		{
			"bufferView":3,
			"componentType":5123,
			"count":37494,
			"type":"SCALAR"
		},
		{
			"bufferView":5,
			"componentType":5126,
			"count":4,
			"max":[
				0,
				0,
				0
			],
			"min":[
				0,
				0,
				0
			],
			"type":"VEC3"
		},
		{
			"bufferView":6,
			"componentType":5126,
			"count":4,
			"type":"VEC2"
		},
		{
			"bufferView":7,
			"componentType":5126,
			"count":4,
			"type":"VEC3"
		},
		{
			"bufferView":8,
			"componentType":5123,
			"count":6,
			"type":"SCALAR"
		}
	],
	"bufferViews":[
		{
			"buffer":0,
			"byteLength":110640,
			"byteOffset":0,
			"target":34962
		},
		{
			"buffer":0,
			"byteLength":73760,
			"byteOffset":110640,
			"target":34962
		},
		{
			"buffer":0,
			"byteLength":110640,
			"byteOffset":184400,
			"target":34962
		},
		{
			"buffer":0,
			"byteLength":74988,
			"byteOffset":295040,
			"target":34963
		},
		{
			"buffer":0,
			"byteLength":599676,
			"byteOffset":370028
		},
		{
			"buffer":0,
			"byteLength":48,
			"byteOffset":969704,
			"target":34962
		},
		{
			"buffer":0,
			"byteLength":32,
			"byteOffset":969752,
			"target":34962
		},
		{
			"buffer":0,
			"byteLength":48,
			"byteOffset":969784,
			"target":34962
		},
		{
			"buffer":0,
			"byteLength":12,
			"byteOffset":969832,
			"target":34963
		}
	],
	"samplers":[
		{
			"magFilter":9729,
			"minFilter":9987
		}
	],
	"buffers":[
		{
			"byteLength":969844,
			"uri":"data:application/octet-stream;base64,"
		}
	]
}
