{
	"asset":{
		"generator":"Khronos glTF Blender I/O v3.5.30",
		"version":"2.0"
	},
	"scene":0,
	"scenes":[
		{
			"name":"Scene",
			"nodes":[
				0,
				1
			]
		}
	],
	"nodes":[
		{
			"mesh":0,
			"name":"_92F32855_9E78_4D9F_B5C2_95983FF1FC6F",
			"rotation":[
				0.7071068286895752,
				0,
				0,
				0.7071068286895752
			]
		},
		{
			"mesh":1,
			"name":"watermark",
			"rotation":[
				0.7071068286895752,
				0,
				0,
				0.7071068286895752
			]
		}
	],
	"materials":[
		{
			"doubleSided":true,
			"name":"g0",
			"pbrMetallicRoughness":{
				"baseColorTexture":{
					"index":0
				},
				"metallicFactor":0,
				"roughnessFactor":0.5
			}
		},
		{
			"doubleSided":true,
			"name":"Material_0",
			"pbrMetallicRoughness":{
				"metallicFactor":0,
				"roughnessFactor":0.5
			}
		}
	],
	"meshes":[
		{
			"name":"_92F32855_9E78_4D9F_B5C2_95983FF1FC6F",
			"primitives":[
				{
					"attributes":{
						"POSITION":0,
						"TEXCOORD_0":1,
						"NORMAL":2
					},
					"indices":3,
					"material":0
				}
			]
		},
		{
			"name":"watermark",
			"primitives":[
				{
					"attributes":{
						"POSITION":4,
						"TEXCOORD_0":5,
						"NORMAL":6
					},
					"indices":7,
					"material":1
				}
			]
		}
	],
	"textures":[
		{
			"sampler":0,
			"source":0
		}
	],
	"images":[
		{
			"bufferView":4,
			"mimeType":"image/png",
			"name":"texgen_2"
		}
	],
	"accessors":[
		{
			"bufferView":0,
			"componentType":5126,
			"count":4581,
			"max":[
				0.7109249830245972,
				0.7122460007667542,
				0.4961729943752289
			],
			"min":[
				-0.7100890278816223,
				-0.7164310216903687,
				-0.670386016368866
			],
			"type":"VEC3"
		},
		{
			"bufferView":1,
			"componentType":5126,
			"count":4581,
			"type":"VEC2"
		},
		{
			"bufferView":2,
			"componentType":5126,
			"count":4581,
			"type":"VEC3"
		},
		{
			"bufferView":3,
			"componentType":5123,
			"count":14997,
			"type":"SCALAR"
		},
		{
			"bufferView":5,
			"componentType":5126,
			"count":4,
			"max":[
				0,
				0,
				0
			],
			"min":[
				0,
				0,
				0
			],
			"type":"VEC3"
		},
		{
			"bufferView":6,
			"componentType":5126,
			"count":4,
			"type":"VEC2"
		},
		{
			"bufferView":7,
			"componentType":5126,
			"count":4,
			"type":"VEC3"
		},
		{
			"bufferView":8,
			"componentType":5123,
			"count":6,
			"type":"SCALAR"
		}
	],
	"bufferViews":[
		{
			"buffer":0,
			"byteLength":54972,
			"byteOffset":0,
			"target":34962
		},
		{
			"buffer":0,
			"byteLength":36648,
			"byteOffset":54972,
			"target":34962
		},
		{
			"buffer":0,
			"byteLength":54972,
			"byteOffset":91620,
			"target":34962
		},
		{
			"buffer":0,
			"byteLength":29994,
			"byteOffset":146592,
			"target":34963
		},
		{
			"buffer":0,
			"byteLength":176277,
			"byteOffset":176588
		},
		{
			"buffer":0,
			"byteLength":48,
			"byteOffset":352868,
			"target":34962
		},
		{
			"buffer":0,
			"byteLength":32,
			"byteOffset":352916,
			"target":34962
		},
		{
			"buffer":0,
			"byteLength":48,
			"byteOffset":352948,
			"target":34962
		},
		{
			"buffer":0,
			"byteLength":12,
			"byteOffset":352996,
			"target":34963
		}
	],
	"samplers":[
		{
			"magFilter":9729,
			"minFilter":9987
		}
	],
	"buffers":[
		{
			"byteLength":353008,
			"uri":"data:application/octet-stream;base64,"
		}
	]
}
